<?xml version="1.0" standalone="no"?>
<!DOCTYPE svg PUBLIC "-//W3C//DTD SVG 20010904//EN"
 "http://www.w3.org/TR/2001/REC-SVG-20010904/DTD/svg10.dtd">
<svg version="1.0" xmlns="http://www.w3.org/2000/svg"
 width="300.000000pt" height="300.000000pt" viewBox="0 0 300.000000 300.000000"
 preserveAspectRatio="xMidYMid meet">
<metadata>
Created by potrace 1.10, written by Peter Selinger 2001-2011
</metadata>
<g transform="translate(0.000000,300.000000) scale(0.100000,-0.100000)"
fill="#000000" stroke="none">
<path d="M650 1677 c0 -31 -3 -34 -42 -44 -24 -6 -57 -15 -74 -21 -23 -7 -37
-6 -55 5 -15 9 -17 12 -5 8 16 -5 17 -3 6 10 -12 15 -15 15 -29 0 -15 -15 -14
-17 3 -31 25 -18 70 -18 121 1 77 28 75 31 75 -118 0 -168 2 -164 -115 -187
-25 -5 20 -7 125 -8 116 0 149 3 112 8 -29 4 -63 15 -77 24 -25 16 -25 18 -25
156 0 156 -3 151 70 125 54 -19 101 -19 126 -1 18 14 18 16 2 32 -9 9 -21 13
-27 10 -18 -11 -13 -26 7 -20 9 3 6 -1 -7 -9 -22 -13 -31 -13 -70 -1 -26 8
-58 17 -73 21 -27 5 -32 16 -29 56 1 9 -3 17 -8 17 -6 0 -11 -15 -11 -33z"/>
<path d="M988 1515 c-2 -79 -1 -95 12 -95 12 0 14 10 11 46 l-3 46 36 -4 c25
-3 36 0 36 9 0 8 -13 13 -35 13 -32 0 -35 2 -35 31 0 31 0 31 50 27 35 -2 50
1 50 10 0 8 -19 12 -59 12 l-60 0 -3 -95z"/>
<path d="M1605 1515 l0 -95 63 0 c45 0 62 4 62 14 0 10 -12 12 -51 8 l-51 -5
4 87 c2 71 0 86 -12 86 -12 0 -15 -17 -15 -95z"/>
<path d="M1155 1500 c0 -64 3 -80 15 -80 12 0 14 14 12 80 -2 53 -8 80 -15 80
-8 0 -12 -25 -12 -80z"/>
<path d="M1248 1500 c-2 -66 0 -80 12 -80 12 0 14 10 12 44 -7 82 1 86 38 19
19 -35 40 -63 45 -63 6 0 10 33 10 80 0 61 -3 80 -14 80 -10 0 -12 -13 -9 -55
3 -30 2 -55 -1 -55 -3 0 -19 25 -36 55 -41 77 -53 72 -57 -25z"/>
<path d="M1425 1500 l0 -80 40 0 c62 0 85 21 85 79 0 61 -20 81 -81 81 l-44 0
0 -80z m93 48 c7 -7 12 -28 12 -48 0 -43 -15 -60 -52 -60 -28 0 -28 1 -28 60
0 59 0 60 28 60 15 0 33 -5 40 -12z"/>
<path d="M1770 1500 l0 -80 55 0 c38 0 55 4 55 13 0 8 -14 11 -45 9 -43 -4
-45 -3 -45 22 0 23 4 26 35 26 24 0 33 4 29 13 -3 9 -16 12 -34 9 -27 -4 -30
-1 -30 22 0 24 3 26 45 26 25 0 45 5 45 10 0 6 -25 10 -55 10 l-55 0 0 -80z"/>
<path d="M1936 1558 c-23 -32 -20 -94 4 -118 37 -37 102 -17 104 33 1 21 -3
26 -31 29 -22 3 -33 0 -33 -9 0 -7 9 -13 20 -13 13 0 20 -7 20 -20 0 -15 -7
-20 -28 -20 -38 0 -52 17 -52 62 0 28 6 41 24 53 24 16 56 11 56 -8 0 -7 4 -7
12 1 10 10 10 15 -2 22 -28 18 -78 11 -94 -12z"/>
<path d="M2122 1518 c-11 -35 -24 -71 -27 -80 -5 -13 -2 -18 8 -18 9 0 17 10
19 21 2 16 11 22 36 24 30 3 38 -6 33 -37 0 -5 9 -8 20 -8 16 0 19 3 11 13 -6
6 -18 42 -28 80 -24 89 -44 90 -72 5z m52 -10 c6 -25 4 -28 -20 -28 -20 0 -25
4 -20 16 3 9 9 27 12 41 7 28 16 18 28 -29z"/>
<path d="M2265 1500 l0 -80 53 0 c28 0 52 5 52 10 0 6 -18 10 -40 10 l-40 0 0
70 c0 49 -4 70 -12 70 -9 0 -13 -23 -13 -80z"/>
<path d="M390 1410 c0 -24 139 -25 163 -1 7 7 -17 10 -77 10 -47 0 -86 -4 -86
-9z"/>
<path d="M769 1407 c7 -7 40 -12 76 -12 36 0 69 5 76 12 9 9 -8 12 -76 12 -68
0 -85 -3 -76 -12z"/>
</g>
</svg>
